<?xml version="1.0" standalone="no"?>
<!DOCTYPE svg PUBLIC "-//W3C//DTD SVG 20010904//EN"
 "http://www.w3.org/TR/2001/REC-SVG-20010904/DTD/svg10.dtd">
<svg version="1.0" xmlns="http://www.w3.org/2000/svg"
 width="1080.000000pt" height="1080.000000pt" viewBox="0 0 1080.000000 1080.000000"
 preserveAspectRatio="xMidYMid meet">
<metadata>
Created by potrace 1.16, written by Peter Selinger 2001-2019
</metadata>
<g transform="translate(0.000000,1080.000000) scale(0.100000,-0.100000)"
fill="#000000" stroke="none">
<path d="M2361 6898 c-5 -18 -102 -316 -215 -663 -663 -2041 -826 -2545 -826
-2554 0 -8 143 -11 475 -11 l475 0 9 23 c5 12 39 135 75 272 37 138 72 265 77
283 l11 32 526 -2 527 -3 75 -285 c41 -157 78 -293 82 -302 7 -17 39 -18 477
-18 258 0 472 3 474 8 2 4 -160 504 -360 1112 -200 608 -440 1338 -534 1623
l-170 517 -584 0 -583 0 -11 -32z m693 -908 c25 -102 93 -365 151 -585 58
-220 105 -401 105 -402 0 -2 -155 -3 -344 -3 l-344 0 44 168 c106 400 196 762
238 957 26 116 49 221 52 235 5 18 13 -3 29 -80 13 -58 44 -188 69 -290z"/>
<path d="M7243 6913 c-32 -82 -1050 -3230 -1046 -3235 2 -5 217 -8 478 -8
l474 0 11 38 c5 20 42 157 82 305 l72 267 527 0 527 0 17 -62 c9 -35 45 -171
79 -303 l63 -240 477 -3 c295 -1 476 1 476 7 0 9 -1037 3166 -1059 3224 l-11
27 -580 0 c-544 0 -581 -1 -587 -17z m641 -738 c25 -110 102 -414 171 -676 69
-262 125 -482 125 -488 0 -8 -98 -11 -340 -11 -187 0 -340 3 -340 6 0 3 27
108 60 232 91 347 214 851 245 1005 16 75 29 136 31 135 1 -2 23 -93 48 -203z"/>
<path d="M4960 5295 l0 -1625 438 2 437 3 0 1620 0 1620 -437 3 -438 2 0
-1625z"/>
</g>
</svg>
