<svg width="1248.9" height="204.6" viewBox="0 0 1248.9 204.6" xmlns="http://www.w3.org/2000/svg"><g id="svgGroup" stroke-linecap="round" fill-rule="evenodd" font-size="9pt" stroke="#000" stroke-width="0.25mm" fill="black" style="stroke:#000;stroke-width:0.25mm;fill:black"><path d="M 0 204.6 L 10.8 0 L 42.9 0 L 89.1 121.8 Q 93 132.3 96.3 141.15 Q 99.136 148.756 101.307 154.921 A 541.7 541.7 0 0 1 102 156.9 Q 105 164.7 107.1 171.3 L 107.7 171.3 Q 109.5 164.7 112.2 156.9 Q 114.263 150.971 116.768 143.601 A 2884.972 2884.972 0 0 0 117.6 141.15 Q 120.6 132.3 124.8 121.8 L 171.9 0 L 204 0 L 214.5 204.6 L 189 204.6 L 183.9 92.1 A 3115.786 3115.786 0 0 1 183.492 81.708 Q 183.34 77.642 183.217 74.015 A 1516.686 1516.686 0 0 1 183 67.2 Q 182.7 57 182.7 50.4 L 182.7 37.8 L 182.1 37.8 A 154.777 154.777 0 0 0 181.144 40.257 Q 180.1 43.002 178.816 46.625 A 512.378 512.378 0 0 0 177.6 50.1 Q 175.453 56.004 172.226 64.909 A 27908.422 27908.422 0 0 0 171.45 67.05 Q 167.7 77.4 162.3 92.1 L 120 204.6 L 94.5 204.6 L 51.9 92.1 A 875.704 875.704 0 0 1 47.92 81.87 Q 46.385 77.845 45.055 74.215 A 443.189 443.189 0 0 1 42.6 67.35 Q 39.38 58.092 37.12 51.834 A 699.842 699.842 0 0 0 36.6 50.4 Q 34.185 43.423 32.73 38.846 A 222.97 222.97 0 0 1 32.4 37.8 L 31.8 37.8 Q 32.068 42.094 32.337 48.788 A 993.867 993.867 0 0 1 32.4 50.4 Q 32.644 60.638 31.897 81.768 A 1756.602 1756.602 0 0 1 31.5 92.1 L 25.5 204.6 L 0 204.6 Z M 262.5 204.6 L 262.5 0 L 387.9 0 L 387.9 23.1 L 287.7 23.1 L 287.7 88.5 L 380.7 88.5 L 380.7 111 L 287.7 111 L 287.7 181.5 L 390.9 181.5 L 390.9 204.6 L 262.5 204.6 Z M 947.1 204.6 L 947.1 0 L 997.5 0 A 166.538 166.538 0 0 1 1014.227 0.805 A 129.253 129.253 0 0 1 1027.65 2.85 A 71.346 71.346 0 0 1 1040.106 6.601 A 54.699 54.699 0 0 1 1050.9 12.45 Q 1060.5 19.2 1065.6 30.3 A 51.079 51.079 0 0 1 1069.086 41.104 Q 1070.196 46.361 1070.542 52.47 A 101.185 101.185 0 0 1 1070.7 58.2 Q 1070.4 76.8 1064.4 88.35 A 64.895 64.895 0 0 1 1057.379 99.209 A 51.602 51.602 0 0 1 1049.7 106.95 A 56.27 56.27 0 0 1 1030.398 117.064 A 64.276 64.276 0 0 1 1029.6 117.3 L 1029.6 117.9 Q 1030.8 119.1 1033.35 122.25 Q 1035.9 125.4 1037.7 127.8 L 1095.6 204.6 L 1065.9 204.6 L 1006.5 123.3 L 972.3 123.3 L 972.3 204.6 L 947.1 204.6 Z M 474.6 204.6 L 474.6 23.4 L 410.4 23.4 L 410.4 0 L 564 0 L 564 23.4 L 499.8 23.4 L 499.8 204.6 L 474.6 204.6 Z M 1159.5 204.6 L 1159.5 23.4 L 1095.3 23.4 L 1095.3 0 L 1248.9 0 L 1248.9 23.4 L 1184.7 23.4 L 1184.7 204.6 L 1159.5 204.6 Z M 560.4 204.6 L 630.6 0 L 661.8 0 L 732 204.6 L 705.9 204.6 L 687.9 150 L 604.8 150 L 586.5 204.6 L 560.4 204.6 Z M 743.4 204.6 L 813.6 0 L 844.8 0 L 915 204.6 L 888.9 204.6 L 870.9 150 L 787.8 150 L 769.5 204.6 L 743.4 204.6 Z M 612.6 126 L 679.8 126 L 646.8 24 L 645.9 24 L 612.6 126 Z M 795.6 126 L 862.8 126 L 829.8 24 L 828.9 24 L 795.6 126 Z M 997.2 22.5 L 972.3 22.5 L 972.3 100.8 L 1002 100.8 A 76.089 76.089 0 0 0 1010.591 100.343 Q 1014.904 99.852 1018.584 98.834 A 39.753 39.753 0 0 0 1021.8 97.8 A 40.203 40.203 0 0 0 1029.047 94.302 A 31.101 31.101 0 0 0 1035 89.55 Q 1040.1 84.3 1042.5 77.4 Q 1044.9 70.5 1045.2 62.4 Q 1045.2 53.418 1043.599 46.799 A 37.119 37.119 0 0 0 1042.05 41.85 A 29.386 29.386 0 0 0 1038.438 35.221 A 23.452 23.452 0 0 0 1032.75 29.7 A 32.787 32.787 0 0 0 1024.929 25.83 A 45.088 45.088 0 0 0 1017.6 24 Q 1008.883 22.548 997.916 22.502 A 171.589 171.589 0 0 0 997.2 22.5 Z" vector-effect="non-scaling-stroke"/></g></svg>