<svg width="200" height="24" viewBox="0 0 200 24" xmlns="http://www.w3.org/2000/svg"><g id="svgGroup" stroke-linecap="round" fill-rule="evenodd" font-size="9pt" stroke="#000" stroke-width="0.25mm" fill="none" style="stroke:#000;stroke-width:0.25mm;fill:black"><path d="M 13.689 24.508 L 12.646 24.508 L 3.503 6.546 L 3.503 24.508 L 0 24.508 L 0 0.001 L 3.828 0.001 L 13.159 18.458 L 22.507 0.001 L 26.318 0.001 L 26.318 24.508 L 22.832 24.508 L 22.832 6.546 L 13.689 24.508 Z" id="0" fill="white" />
<path d="M 32.625 24.508 L 32.625 0.001 L 50.483 0.001 L 50.483 3.504 L 36.128 3.504 L 36.128 10.511 L 48.381 10.511 L 48.381 14.015 L 36.128 14.015 L 36.128 21.004 L 50.483 21.004 L 50.483 24.508 L 32.625 24.508 Z" id="1" fill="white"/>
<path d="M 53.628 3.504 L 53.628 0.001 L 73.23 0.001 L 73.23 3.504 L 65.181 3.504 L 65.181 24.508 L 61.677 24.508 L 61.677 3.504 L 53.628 3.504 Z" id="2" fill="white"/><path d="M 81.98 0.001 L 85.483 0.001 L 94.934 24.508 L 91.431 24.508 L 89.26 18.868 L 78.203 18.868 L 76.033 24.508 L 72.529 24.508 L 81.98 0.001 Z M 83.74 4.564 L 79.536 15.365 L 87.91 15.365 L 83.74 4.564 Z" id="3" fill="white"/>
<path d="M 106.487 0.001 L 109.99 0.001 L 119.441 24.508 L 115.938 24.508 L 113.767 18.868 L 102.71 18.868 L 100.54 24.508 L 97.036 24.508 L 106.487 0.001 Z M 108.247 4.564 L 104.043 15.365 L 112.417 15.365 L 108.247 4.564 Z" id="4" fill="white"/>
<path d="M 143.008 5.965 L 143.008 8.751 A 8.911 8.911 0 0 1 142.767 10.912 Q 142.057 13.747 139.248 14.467 A 7.121 7.121 0 0 1 138.633 14.596 L 143.247 24.508 L 139.368 24.508 L 134.822 14.715 L 127.148 14.715 L 127.148 24.508 L 123.645 24.508 L 123.645 0.001 L 137.061 0.001 Q 141.78 0.001 142.754 3.756 A 8.811 8.811 0 0 1 143.008 5.965 Z M 127.148 3.504 L 127.148 11.212 L 136.873 11.212 A 5.038 5.038 0 0 0 137.589 11.164 Q 138.429 11.043 138.873 10.613 A 1.533 1.533 0 0 0 138.889 10.597 Q 139.499 9.987 139.504 8.605 A 6.348 6.348 0 0 0 139.504 8.58 L 139.504 6.136 A 5.038 5.038 0 0 0 139.457 5.419 Q 139.336 4.58 138.905 4.136 A 1.533 1.533 0 0 0 138.889 4.12 Q 138.279 3.51 136.898 3.504 A 6.348 6.348 0 0 0 136.873 3.504 L 127.148 3.504 Z" id="5" fill="white"/>
<path d="M 146.75 3.504 L 146.75 0.001 L 166.353 0.001 L 166.353 3.504 L 158.303 3.504 L 158.303 24.508 L 154.8 24.508 L 154.8 3.504 L 146.75 3.504 Z" id="6" fill="white"/></g></svg>