<svg 
width="416.3" 
height="68.2" 
viewBox="0 0 416.3 68.2" 
xmlns="http://www.w3.org/2000/svg">
<g 
id="svgGroup" 
stroke-linecap="round" 
fill-rule="evenodd" 
font-size="9pt" 
stroke="#000" 
stroke-width="0.25mm" 
fill="black" 
style="stroke:#000;stroke-width:0.25mm;fill:black">
<path 
d="M 0 68.2 L 3.6 0 L 14.3 0 L 29.7 40.6 Q 31 44.1 32.1 47.05 A 314.984 314.984 0 0 1 33.005 49.507 Q 33.55 51.006 34 52.3 Q 35 54.9 35.7 57.1 L 35.9 57.1 Q 36.5 54.9 37.4 52.3 A 574.526 574.526 0 0 0 38.138 50.163 Q 38.513 49.073 38.923 47.867 A 961.972 961.972 0 0 0 39.2 47.05 Q 40.2 44.1 41.6 40.6 L 57.3 0 L 68 0 L 71.5 68.2 L 63 68.2 L 61.3 30.7 A 1038.621 1038.621 0 0 1 61.164 27.236 Q 61.063 24.525 61 22.4 Q 60.9 19 60.9 16.8 L 60.9 12.6 L 60.7 12.6 A 51.595 51.595 0 0 0 60.381 13.419 Q 60.033 14.334 59.605 15.542 A 170.798 170.798 0 0 0 59.2 16.7 Q 58.484 18.668 57.409 21.636 A 9329.432 9329.432 0 0 0 57.15 22.35 Q 56.291 24.722 55.171 27.779 A 2900.792 2900.792 0 0 1 54.1 30.7 L 40 68.2 L 31.5 68.2 L 17.3 30.7 A 291.899 291.899 0 0 1 15.973 27.29 Q 14.95 24.606 14.2 22.45 Q 13.127 19.364 12.373 17.278 A 233.194 233.194 0 0 0 12.2 16.8 Q 11.3 14.2 10.8 12.6 L 10.6 12.6 Q 10.689 14.031 10.779 16.263 A 331.295 331.295 0 0 1 10.8 16.8 Q 10.881 20.213 10.632 27.256 A 585.542 585.542 0 0 1 10.5 30.7 L 8.5 68.2 L 0 68.2 Z M 87.5 68.2 L 87.5 0 L 129.3 0 L 129.3 7.7 L 95.9 7.7 L 95.9 29.5 L 126.9 29.5 L 126.9 37 L 95.9 37 L 95.9 60.5 L 130.3 60.5 L 130.3 68.2 L 87.5 68.2 Z M 315.7 68.2 L 315.7 0 L 332.5 0 Q 338 0 342.55 0.95 A 23.782 23.782 0 0 1 346.702 2.2 A 18.233 18.233 0 0 1 350.3 4.15 Q 353.5 6.4 355.2 10.1 A 17.026 17.026 0 0 1 356.362 13.701 Q 356.732 15.454 356.847 17.49 A 33.728 33.728 0 0 1 356.9 19.4 A 32.672 32.672 0 0 1 356.607 23.385 Q 356.321 25.431 355.762 27.138 A 15.412 15.412 0 0 1 354.8 29.45 Q 352.8 33.3 349.9 35.65 A 18.757 18.757 0 0 1 343.466 39.021 A 21.427 21.427 0 0 1 343.2 39.1 L 343.2 39.3 Q 343.6 39.7 344.45 40.75 A 84.821 84.821 0 0 1 345.052 41.502 Q 345.525 42.1 345.9 42.6 L 365.2 68.2 L 355.3 68.2 L 335.5 41.1 L 324.1 41.1 L 324.1 68.2 L 315.7 68.2 Z M 158.2 68.2 L 158.2 7.8 L 136.8 7.8 L 136.8 0 L 188 0 L 188 7.8 L 166.6 7.8 L 166.6 68.2 L 158.2 68.2 Z M 386.5 68.2 L 386.5 7.8 L 365.1 7.8 L 365.1 0 L 416.3 0 L 416.3 7.8 L 394.9 7.8 L 394.9 68.2 L 386.5 68.2 Z M 186.8 68.2 L 210.2 0 L 220.6 0 L 244 68.2 L 235.3 68.2 L 229.3 50 L 201.6 50 L 195.5 68.2 L 186.8 68.2 Z M 247.8 68.2 L 271.2 0 L 281.6 0 L 305 68.2 L 296.3 68.2 L 290.3 50 L 262.6 50 L 256.5 68.2 L 247.8 68.2 Z M 204.2 42 L 226.6 42 L 215.6 8 L 215.3 8 L 204.2 42 Z M 265.2 42 L 287.6 42 L 276.6 8 L 276.3 8 L 265.2 42 Z M 332.4 7.5 L 324.1 7.5 L 324.1 33.6 L 334 33.6 A 25.363 25.363 0 0 0 336.864 33.448 Q 338.301 33.284 339.528 32.945 A 13.251 13.251 0 0 0 340.6 32.6 A 13.401 13.401 0 0 0 343.016 31.434 A 10.367 10.367 0 0 0 345 29.85 Q 346.7 28.1 347.5 25.8 A 16.402 16.402 0 0 0 348.306 22.125 A 19.434 19.434 0 0 0 348.4 20.8 Q 348.4 17.806 347.866 15.6 A 12.373 12.373 0 0 0 347.35 13.95 Q 346.3 11.3 344.25 9.9 A 10.929 10.929 0 0 0 341.643 8.61 A 15.029 15.029 0 0 0 339.2 8 Q 336.2 7.5 332.4 7.5 Z" 
vector-effect="non-scaling-stroke"/></g></svg>